HIERARCHY
ROOT Hips
{
	OFFSET 0.00000 0.00000 0.00000
	CHANNELS 6 Xposition Yposition Zposition Zrotation Yrotation Xrotation 
	JOINT LHipJoint
	{
		OFFSET 0 0 0
		CHANNELS 3 Zrotation Yrotation Xrotation
		JOINT LeftHip
		{
			OFFSET 1.57358 -1.76629 0.73362
			CHANNELS 3 Zrotation Yrotation Xrotation
			JOINT LeftKnee
			{
				OFFSET 2.40600 -6.61045 0.00000
				CHANNELS 3 Zrotation Yrotation Xrotation
				JOINT LeftAnkle
				{
					OFFSET 2.66168 -7.31291 0.00000
					CHANNELS 3 Zrotation Yrotation Xrotation
					JOINT LeftToe
					{
						OFFSET 0.20870 -0.57341 2.12506
						CHANNELS 3 Zrotation Yrotation Xrotation
						End Site
						{
							OFFSET 0.00000 -0.00000 1.10557
						}
					}
				}
			}
		}
	}
	JOINT RHipJoint
	{
		OFFSET 0 0 0
		CHANNELS 3 Zrotation Yrotation Xrotation
		JOINT RightHip
		{
			OFFSET -1.49299 -1.76629 0.73362
			CHANNELS 3 Zrotation Yrotation Xrotation
			JOINT RightKnee
			{
				OFFSET -2.43663 -6.69460 0.00000
				CHANNELS 3 Zrotation Yrotation Xrotation
				JOINT RightAnkle
				{
					OFFSET -2.62959 -7.22474 0.00000
					CHANNELS 3 Zrotation Yrotation Xrotation
					JOINT RightToe
					{
						OFFSET -0.25784 -0.70841 2.21862
						CHANNELS 3 Zrotation Yrotation Xrotation
						End Site
						{
							OFFSET -0.00000 -0.00000 1.16452
						}
					}
				}
			}
		}
	}
	JOINT lowerback
	{
		OFFSET 0 0 0
		CHANNELS 3 Zrotation Yrotation Xrotation
		JOINT Chest
		{
			OFFSET -0.00034 2.12399 -0.25450
			CHANNELS 3 Zrotation Yrotation Xrotation
			JOINT Chest2
			{
				OFFSET 0.05594 2.14379 -0.03318
				CHANNELS 3 Zrotation Yrotation Xrotation
				JOINT lowerneck
				{
					OFFSET 0 0 0
					CHANNELS 3 Zrotation Yrotation Xrotation
					JOINT Neck
					{
						OFFSET -0.09835 1.62725 0.24211
						CHANNELS 3 Zrotation Yrotation Xrotation
						JOINT Head
						{
							OFFSET 0.10849 1.66041 -0.22648
							CHANNELS 3 Zrotation Yrotation Xrotation
							End Site
							{
								OFFSET 0.04385 1.68267 -0.10541
							}
						}
					}
				}
				JOINT LeftCollar
				{
					OFFSET 0 0 0
					CHANNELS 3 Zrotation Yrotation Xrotation
					JOINT LeftShoulder
					{
						OFFSET 3.29108 0.79398 -0.68179
CHANNELS 3 Zrotation Xrotation Yrotation
						JOINT LeftElbow
						{
OFFSET 0 -5.153100 -0.000000
CHANNELS 3 Zrotation Xrotation Yrotation
							JOINT LeftWrist
							{
OFFSET 0 -3.751380 -0.000000
CHANNELS 3 Zrotation Xrotation Yrotation
								JOINT lhand
								{
									OFFSET 0 0 0
CHANNELS 3 Zrotation Xrotation Yrotation
									JOINT LFingers
									{
OFFSET 0 -0.529170 0.000000
CHANNELS 3 Zrotation Xrotation Yrotation
										End Site
										{
OFFSET 0 -0.426630 0.000000
										}
									}
								}
								JOINT LThumb
								{
OFFSET 0 0.000000 0.000000
CHANNELS 3 Zrotation Xrotation Yrotation
									End Site
									{
OFFSET 0 -0.433150 0.433150
									}
								}
							}
						}
					}
				}
				JOINT RightCollar
				{
					OFFSET 0 0 0
					CHANNELS 3 Zrotation Yrotation Xrotation
					JOINT RightShoulder
					{
						OFFSET -3.07414 1.06285 -0.44338
CHANNELS 3 Zrotation Xrotation Yrotation
						JOINT RightElbow
						{
OFFSET 0 -5.296130 0.000000
CHANNELS 3 Zrotation Xrotation Yrotation
							JOINT RightWrist
							{
OFFSET 0 -3.761440 -0.000000
CHANNELS 3 Zrotation Xrotation Yrotation
								JOINT rhand
								{
									OFFSET 0 0 0
CHANNELS 3 Zrotation Xrotation Yrotation
									JOINT RFingers
									{
OFFSET 0 -0.747320 0.000000
CHANNELS 3 Zrotation Xrotation Yrotation
										End Site
										{
OFFSET 0 -0.602510 0.000000
										}
									}
								}
								JOINT RThumb
								{
OFFSET 0 0.000000 0.000000
CHANNELS 3 Zrotation Xrotation Yrotation
									End Site
									{
OFFSET 0 -0.611710 0.611710
									}
								}
							}
						}
					}
				}
			}
		}
	}
}
MOTION
Frames: 9
Frame Time: 0.008333333333333333
14.634900 17.169900 -33.868600 13.471000 -8.920000 7.869600 0.000000 0.000000 0.000000 -32.292000 0.202600 9.621800 2.286900 9.439800 27.180900 2.996100 -2.560200 33.718700 0.027900 -1.078000 -2.963600 0.000000 0.000000 0.000000 4.903800 16.763800 -49.598100 -8.578200 -16.528500 54.619600 -0.139100 -1.139000 -7.557000 -0.217900 3.005200 -8.293300 -6.313200 -1.520700 10.175000 0.055700 -2.694800 1.827000 3.954900 -1.270200 -3.498200 -9.715100 -1.128500 -21.769300 2.816400 0.863100 10.327900 2.571700 0.265800 6.614100 -0.000000 -0.000000 0.000000 0.663500 6.794400 -37.180800 126.995300 -54.137700 91.408100 14.377800 -28.526900 -5.447900 0.000000 0.000000 0.000000 -7.125000 0.000000 0.000000 -10.249000 35.447100 -2.437600 -0.000000 -0.000000 0.000000 -9.811700 34.744300 33.832400 -94.152700 -59.934700 -63.595600 -19.572900 -23.508500 -33.106000 0.000000 0.000000 0.000000 7.125000 0.000000 -0.000000 7.013700 -4.473300 7.594600
14.616389 17.178440 -33.739865 13.477563 -8.920905 7.848691 0.000000 0.000000 0.000000 -32.282808 0.027357 9.607328 2.373922 9.598425 27.691232 2.985267 -3.394408 34.026190 0.022052 -0.835361 -2.296578 0.000000 0.000000 0.000000 4.968861 16.780334 -49.363265 -8.315030 -16.333442 53.669047 -0.132558 -1.088200 -7.356641 -0.217753 3.004106 -8.290208 -6.297045 -1.496636 10.209056 0.016554 -2.670252 1.701694 3.906414 -1.250006 -3.654070 -9.548860 -1.110410 -21.252279 2.734847 0.798123 10.118896 2.507143 0.237613 6.468832 0.000000 0.000000 0.000000 0.834494 7.205804 -37.351521 126.732635 -54.229329 91.194657 14.173781 -28.309692 -5.731495 0.000000 0.000000 0.000000 -7.125000 0.000000 0.000000 -10.463621 35.722512 -2.413136 0.000000 0.000000 0.000000 -9.625687 34.970700 33.666034 -94.215553 -59.932660 -63.649976 -19.597027 -23.351789 -32.916306 0.000000 0.000000 0.000000 7.125000 0.000000 0.000000 6.974217 -4.286887 7.530590
14.597878 17.186980 -33.611131 13.484126 -8.921809 7.827782 0.000000 0.000000 0.000000 -32.273615 -0.147886 9.592856 2.460944 9.757051 28.201563 2.974434 -4.228617 34.333681 0.016205 -0.592721 -1.629557 0.000000 0.000000 0.000000 5.033923 16.796867 -49.128429 -8.051861 -16.138384 52.718493 -0.126016 -1.037401 -7.156282 -0.217606 3.003012 -8.287116 -6.280890 -1.472572 10.243112 -0.022592 -2.645704 1.576388 3.857928 -1.229813 -3.809940 -9.382620 -1.092320 -20.735259 2.653294 0.733145 9.909891 2.442587 0.209426 6.323564 0.000000 0.000000 0.000000 1.005488 7.617207 -37.522241 126.469970 -54.320957 90.981215 13.969762 -28.092484 -6.015089 0.000000 0.000000 0.000000 -7.125000 0.000000 0.000000 -10.678241 35.997924 -2.388672 0.000000 0.000000 0.000000 -9.439674 35.197101 33.499667 -94.278406 -59.930619 -63.704351 -19.621154 -23.195078 -32.726612 0.000000 0.000000 0.000000 7.125000 0.000000 0.000000 6.934734 -4.100475 7.466581
14.579367 17.195521 -33.482396 13.490689 -8.922714 7.806873 0.000000 0.000000 0.000000 -32.264423 -0.323129 9.578384 2.547966 9.915676 28.711895 2.963601 -5.062825 34.641171 0.010357 -0.350082 -0.962535 0.000000 0.000000 0.000000 5.098984 16.813401 -48.893594 -7.788691 -15.943326 51.767940 -0.119474 -0.986601 -6.955923 -0.217458 3.001919 -8.284024 -6.264735 -1.448508 10.277167 -0.061739 -2.621156 1.451082 3.809443 -1.209619 -3.965809 -9.216380 -1.074230 -20.218238 2.571741 0.668168 9.700887 2.378030 0.181239 6.178296 0.000000 0.000000 0.000000 1.176482 8.028611 -37.692962 126.207306 -54.412586 90.767772 13.765743 -27.875276 -6.298684 0.000000 0.000000 0.000000 -7.125000 0.000000 0.000000 -10.892862 36.273336 -2.364209 0.000000 0.000000 0.000000 -9.253661 35.423501 33.333301 -94.341258 -59.928579 -63.758727 -19.645282 -23.038366 -32.536918 0.000000 0.000000 0.000000 7.125000 0.000000 0.000000 6.895252 -3.914062 7.402571
14.560857 17.204061 -33.353662 13.497252 -8.923618 7.785965 0.000000 0.000000 0.000000 -32.255231 -0.498372 9.563912 2.634988 10.074302 29.222226 2.952768 -5.897033 34.948662 0.004509 -0.107442 -0.295513 0.000000 0.000000 0.000000 5.164046 16.829934 -48.658758 -7.525522 -15.748268 50.817387 -0.112932 -0.935801 -6.755564 -0.217311 3.000825 -8.280931 -6.248580 -1.424444 10.311223 -0.100885 -2.596608 1.325777 3.760957 -1.189425 -4.121679 -9.050140 -1.056139 -19.701217 2.490188 0.603191 9.491883 2.313474 0.153052 6.033028 0.000000 0.000000 0.000000 1.347476 8.440015 -37.863682 125.944641 -54.504215 90.554329 13.561724 -27.658068 -6.582279 0.000000 0.000000 0.000000 -7.125000 0.000000 0.000000 -11.107483 36.548748 -2.339745 0.000000 0.000000 0.000000 -9.067648 35.649901 33.166935 -94.404111 -59.926538 -63.813103 -19.669409 -22.881655 -32.347223 0.000000 0.000000 0.000000 7.125000 0.000000 0.000000 6.855769 -3.727649 7.338561
14.542222 17.211913 -33.225310 13.515775 -8.909902 7.764036 0.000000 0.000000 0.000000 -32.256146 -0.685612 9.524375 2.733846 10.247552 29.785786 2.941862 -6.470236 35.138865 0.008468 0.205710 0.566358 0.000000 0.000000 0.000000 5.222012 16.826460 -48.435210 -7.278556 -15.559482 49.915595 -0.106727 -0.881125 -6.557721 -0.225268 3.047778 -8.412236 -6.248991 -1.409700 10.341273 -0.131678 -2.584269 1.234742 3.731014 -1.177212 -4.236835 -8.921897 -1.040135 -19.325927 2.431365 0.557698 9.335946 2.265638 0.133844 5.926129 0.000000 0.000000 0.000000 1.490803 8.777769 -38.007796 125.644388 -54.606670 90.309772 13.327238 -27.499838 -6.726725 0.000000 0.000000 0.000000 -7.125000 0.000000 0.000000 -11.323791 36.682466 -2.355648 0.000000 0.000000 0.000000 -8.914586 35.790397 33.019484 -94.444379 -59.925238 -63.847936 -19.768252 -22.761947 -32.111107 0.000000 0.000000 0.000000 7.125000 0.000000 0.000000 6.767602 -3.508793 7.219854
14.523206 17.217655 -33.098132 13.570950 -8.851383 7.738983 0.000000 0.000000 0.000000 -32.288035 -0.909614 9.408031 2.868975 10.465623 30.512463 2.930735 -6.243583 34.969638 0.042482 0.734952 2.025350 0.000000 0.000000 0.000000 5.258234 16.761672 -48.246252 -7.081247 -15.389918 49.163234 -0.101552 -0.814570 -6.367585 -0.258062 3.241974 -8.955404 -6.300170 -1.423520 10.359048 -0.136874 -2.609343 1.248730 3.757897 -1.189454 -4.227222 -8.910096 -1.030522 -19.384972 2.442198 0.571918 9.342635 2.269046 0.142153 5.936815 0.000000 0.000000 0.000000 1.549343 8.889823 -38.070376 125.228946 -54.742304 89.969867 12.999385 -27.522345 -6.444750 0.000000 0.000000 0.000000 -7.125000 0.000000 0.000000 -11.545269 36.381959 -2.495258 0.000000 0.000000 0.000000 -8.862503 35.667636 32.930001 -94.415435 -59.926206 -63.822883 -20.096062 -22.755637 -31.732728 0.000000 0.000000 0.000000 7.125000 0.000000 0.000000 6.530242 -3.190511 6.933525
14.504190 17.223398 -32.970954 13.626125 -8.792863 7.713931 0.000000 0.000000 0.000000 -32.319924 -1.133616 9.291686 3.004105 10.683693 31.239140 2.919607 -6.016931 34.800411 0.076496 1.264194 3.484342 0.000000 0.000000 0.000000 5.294457 16.696884 -48.057294 -6.883938 -15.220355 48.410873 -0.096378 -0.748016 -6.177449 -0.290856 3.436170 -9.498571 -6.351348 -1.437340 10.376822 -0.142070 -2.634417 1.262718 3.784780 -1.201697 -4.217609 -8.898295 -1.020909 -19.444018 2.453031 0.586138 9.349324 2.272454 0.150462 5.947501 0.000000 0.000000 0.000000 1.607884 9.001876 -38.132955 124.813503 -54.877938 89.629961 12.671533 -27.544853 -6.162775 0.000000 0.000000 0.000000 -7.125000 0.000000 0.000000 -11.766747 36.081452 -2.634868 0.000000 0.000000 0.000000 -8.810420 35.544876 32.840518 -94.386490 -59.927173 -63.797831 -20.423872 -22.749326 -31.354350 0.000000 0.000000 0.000000 7.125000 0.000000 0.000000 6.292883 -2.872230 6.647195
14.485174 17.229141 -32.843776 13.681300 -8.734344 7.688878 0.000000 0.000000 0.000000 -32.351813 -1.357619 9.175341 3.139234 10.901764 31.965817 2.908480 -5.790278 34.631184 0.110510 1.793437 4.943333 0.000000 0.000000 0.000000 5.330679 16.632096 -47.868337 -6.686629 -15.050791 47.658513 -0.091203 -0.681461 -5.987313 -0.323649 3.630365 -10.041738 -6.402526 -1.451160 10.394597 -0.147265 -2.659490 1.276707 3.811662 -1.213939 -4.207996 -8.886495 -1.011296 -19.503063 2.463864 0.600358 9.356013 2.275861 0.158771 5.958186 0.000000 0.000000 0.000000 1.666425 9.113930 -38.195534 124.398061 -55.013572 89.290056 12.343681 -27.567360 -5.880800 0.000000 0.000000 0.000000 -7.125000 0.000000 0.000000 -11.988225 35.780945 -2.774477 0.000000 0.000000 0.000000 -8.758338 35.422115 32.751035 -94.357546 -59.928141 -63.772778 -20.751683 -22.743016 -30.975971 0.000000 0.000000 0.000000 7.125000 0.000000 0.000000 6.055523 -2.553948 6.360866
